<svg xmlns="http://www.w3.org/2000/svg" viewBox="0 0 32 32" shape-rendering="crispEdges" role="img"><title>Glinfs</title><path fill="#22d3ee" d="M4 5h2v2h-2zM4 7h4v2h-4zM4 9h6v2h-6zM4 11h8v2h-8zM4 13h10v2h-10zM4 15h12v2h-12zM4 17h14v2h-14zM4 19h16v2h-16zM4 21h18v2h-18zM4 23h14v2h-14zM4 25h16v2h-16zM4 27h18v2h-18zM16 29h4v2h-4z"/><path fill="#ec4899" d="M16 3h2v2h-2zM16 5h4v2h-4zM16 7h6v2h-6zM16 9h8v2h-8zM16 11h10v2h-10zM16 13h12v2h-12zM16 15h14v2h-14zM16 17h16v4h-16zM16 21h14v2h-14zM16 23h16v4h-16zM28 27h4v2h-4z"/><path fill="#111114" d="M7 1h2v1h-2zM10 1h2v1h-2zM13 1h2v1h-2zM14 2h1v1h-1zM14 3h3v1h-3zM16 4h1v1h-1zM10 4h2v2h-2zM16 5h3v1h-3zM18 6h1v1h-1zM10 6h4v2h-4zM18 7h2v1h-2zM10 8h6v2h-6zM10 10h8v2h-8zM24 12h1v1h-1zM10 12h10v2h-10zM24 13h3v1h-3zM26 14h1v1h-1zM10 14h12v2h-12zM26 15h3v1h-3zM28 16h1v1h-1zM10 16h14v2h-14zM28 17h3v1h-3zM30 18h1v1h-1zM10 18h16v2h-16zM10 20h18v2h-18zM30 20h1v2h-1zM10 22h14v2h-14zM30 23h1v2h-1zM10 24h6v2h-6zM18 24h8v2h-8zM10 26h4v2h-4zM20 26h8v2h-8zM30 26h1v2h-1zM7 2h1v28h-1zM22 28h4v2h-4zM30 29h1v1h-1zM7 30h13v1h-13zM28 30h3v1h-3zM19 31h1v1h-1zM28 31h1v1h-1z"/><path fill="#ffffff" d="M8 2h6v2h-6zM22 2h6v2h-6zM12 4h4v2h-4zM14 6h4v2h-4zM20 4h2v4h-2zM16 8h6v2h-6zM28 4h2v6h-2zM18 10h10v2h-10zM20 12h4v2h-4zM22 14h4v2h-4zM24 16h4v2h-4zM26 18h4v2h-4zM28 20h2v2h-2zM24 22h6v2h-6zM16 24h2v2h-2zM26 24h4v2h-4zM8 4h2v24h-2zM14 26h6v2h-6zM28 26h2v2h-2zM8 28h14v2h-14zM26 28h4v2h-4zM20 30h8v2h-8z"/><path fill="#ef4444" d="M22 4h6v6h-6z"/></svg>
